<?xml version="1.0" encoding="UTF-8"?>
<!DOCTYPE svg PUBLIC "-//W3C//DTD SVG 1.1//EN" "http://www.w3.org/Graphics/SVG/1.1/DTD/svg11.dtd">
<svg xmlns="http://www.w3.org/2000/svg" version="1.1" width="1024px" height="1024px" style="shape-rendering:geometricPrecision; text-rendering:geometricPrecision; image-rendering:optimizeQuality; fill-rule:evenodd; clip-rule:evenodd" xmlns:xlink="http://www.w3.org/1999/xlink">
<g><path style="opacity:1" fill="#616ca6" d="M 541.5,178.5 C 526.342,179.496 511.009,179.83 495.5,179.5C 510.659,177.636 525.993,177.303 541.5,178.5 Z"/></g>
<g><path style="opacity:1" fill="#1073b9" d="M 541.5,178.5 C 545.371,178.185 549.038,178.518 552.5,179.5C 549.482,179.335 546.482,179.502 543.5,180C 551.534,180.504 559.534,181.338 567.5,182.5C 569.045,182.489 570.378,182.156 571.5,181.5C 622.578,188.888 668.911,207.555 710.5,237.5C 709.668,238.329 710.001,239.162 711.5,240C 740.958,260.458 766.125,285.292 787,314.5C 787.464,313.906 787.631,313.239 787.5,312.5C 810.834,342.844 827.001,376.844 836,414.5C 842.759,438.721 846.592,463.388 847.5,488.5C 846.685,501.001 846.018,513.667 845.5,526.5C 845.503,529.025 845.837,531.359 846.5,533.5C 841.158,594.721 819.658,649.388 782,697.5C 739.431,751.047 686.264,790.38 622.5,815.5C 605.938,819.688 588.938,823.521 571.5,827C 542.883,831.021 514.216,831.521 485.5,828.5C 484.791,827.596 483.791,827.263 482.5,827.5C 481.391,827.443 480.391,827.11 479.5,826.5C 427.57,817.691 380.57,797.691 338.5,766.5C 340.379,766.607 340.712,766.107 339.5,765C 316.075,747.576 295.242,727.41 277,704.5C 276.601,704.728 276.435,705.062 276.5,705.5C 234.567,653.434 210.567,593.767 204.5,526.5C 205.331,511.339 205.831,496.005 206,480.5C 206.421,472.954 207.254,465.454 208.5,458C 208.486,456.615 208.152,455.449 207.5,454.5C 209.781,436.426 213.447,418.76 218.5,401.5C 218.343,402.873 218.51,404.207 219,405.5C 225.346,380.146 235.513,356.479 249.5,334.5C 249.376,333.893 249.043,333.56 248.5,333.5C 267.908,300.059 292.908,271.392 323.5,247.5C 325.201,247.034 326.701,247.034 328,247.5C 329.458,245.04 331.291,242.873 333.5,241C 361.229,221.468 391.229,206.135 423.5,195C 422.906,194.536 422.239,194.369 421.5,194.5C 445.416,186.359 470.083,181.359 495.5,179.5C 511.009,179.83 526.342,179.496 541.5,178.5 Z M 560.5,231.5 C 559.504,231.414 558.671,231.748 558,232.5C 557.847,235.151 557.013,237.484 555.5,239.5C 553.456,240.031 551.789,241.198 550.5,243C 545.389,244.111 540.722,243.111 536.5,240C 518.74,238.284 502.406,242.284 487.5,252C 477.558,258.276 467.892,264.943 458.5,272C 455.882,274.106 453.882,276.606 452.5,279.5C 452.753,283.04 453.419,286.373 454.5,289.5C 454.506,292.85 455.506,295.85 457.5,298.5C 460.453,296.127 463.786,295.293 467.5,296C 468.074,299.314 469.574,302.147 472,304.5C 481.228,302.814 488.728,298.481 494.5,291.5C 494.805,289.081 494.805,286.414 494.5,283.5C 495.817,274.999 499.817,268.166 506.5,263C 508.722,262.305 510.889,261.472 513,260.5C 515.597,261.693 516.597,263.693 516,266.5C 512.752,270.073 509.919,273.907 507.5,278C 508.249,279.734 508.749,281.567 509,283.5C 509.689,284.357 510.522,285.023 511.5,285.5C 517.122,281.451 522.122,282.118 526.5,287.5C 526.392,288.442 526.059,289.275 525.5,290C 521.213,291.488 516.88,292.822 512.5,294C 509.096,297.428 507.429,301.595 507.5,306.5C 505.669,307.052 504.003,307.052 502.5,306.5C 494.155,312.257 484.989,315.923 475,317.5C 473.373,317.375 471.873,316.875 470.5,316C 469.33,313.666 467.663,311.832 465.5,310.5C 461.892,311.819 458.225,312.986 454.5,314C 451.831,323.514 445.497,327.18 435.5,325C 433.684,328.275 432.018,331.608 430.5,335C 423.633,338.597 416.966,342.43 410.5,346.5C 404.023,343.544 398.023,344.377 392.5,349C 395.192,352.701 398.692,355.201 403,356.5C 405.071,361.908 404.571,367.074 401.5,372C 398.035,372.65 395.035,374.15 392.5,376.5C 387.841,370.669 381.841,367.836 374.5,368C 361.155,379.192 356.322,393.358 360,410.5C 360.5,412.333 361.667,413.5 363.5,414C 367.811,414.225 371.978,415.058 376,416.5C 386.697,412.989 395.697,406.989 403,398.5C 403.333,395.167 403.667,391.833 404,388.5C 406.739,385.882 409.573,383.382 412.5,381C 419.62,377.958 426.953,375.291 434.5,373C 438.18,371.973 441.347,372.806 444,375.5C 445.787,379.577 447.954,383.41 450.5,387C 457.776,388.722 464.276,391.889 470,396.5C 470.743,399.783 470.076,402.783 468,405.5C 464.974,408.026 461.807,410.36 458.5,412.5C 457.614,413.325 457.281,414.325 457.5,415.5C 469.697,416.506 478.363,411.339 483.5,400C 483.066,397.366 482.233,394.866 481,392.5C 475.749,389.589 470.749,386.256 466,382.5C 464.445,377.618 464.112,372.618 465,367.5C 465.414,367.043 465.914,366.709 466.5,366.5C 473.996,369.999 480.663,374.665 486.5,380.5C 489.955,386.005 490.288,391.672 487.5,397.5C 492.618,400.784 496.952,404.95 500.5,410C 504.5,410.667 508.5,410.667 512.5,410C 513.074,404.472 513.908,398.972 515,393.5C 515.804,392.196 516.971,391.529 518.5,391.5C 521.338,393.102 524.338,393.602 527.5,393C 529.559,388.273 531.392,383.439 533,378.5C 536.385,374.783 539.385,370.783 542,366.5C 545.395,362.813 549.562,361.313 554.5,362C 557.226,364.03 560.226,365.53 563.5,366.5C 566.336,363.519 569.669,361.019 573.5,359C 575.833,358.333 578.167,358.333 580.5,359C 582.174,361.508 583.174,364.342 583.5,367.5C 589.045,370.099 594.045,373.433 598.5,377.5C 598.595,379.786 599.262,381.786 600.5,383.5C 599.009,387.939 595.842,389.606 591,388.5C 584.511,388.336 578.344,386.836 572.5,384C 569.833,383.333 567.167,383.333 564.5,384C 558.421,386.137 552.421,388.471 546.5,391C 543.883,391.822 541.216,392.322 538.5,392.5C 536.098,390.109 533.764,390.109 531.5,392.5C 528.103,396.526 526.603,401.192 527,406.5C 530.467,410.331 534.3,413.831 538.5,417C 548.066,418.613 557.733,418.947 567.5,418C 570.206,416.092 573.206,415.259 576.5,415.5C 576.09,425.662 574.59,435.662 572,445.5C 570.833,446.667 569.667,447.833 568.5,449C 560.559,449.693 553.059,451.86 546,455.5C 532.574,452.984 519.407,449.651 506.5,445.5C 503.097,445.561 499.764,446.061 496.5,447C 491.596,450.906 486.43,454.406 481,457.5C 471.477,453.969 462.977,448.803 455.5,442C 450.173,440.156 445.506,437.323 441.5,433.5C 442.06,431.146 442.727,428.813 443.5,426.5C 444.183,426.137 444.85,425.804 445.5,425.5C 447.377,424.341 447.877,422.674 447,420.5C 446.329,419.748 445.496,419.414 444.5,419.5C 439.207,416.693 433.54,415.36 427.5,415.5C 417.471,416.002 407.471,416.835 397.5,418C 391.627,419.274 385.96,421.107 380.5,423.5C 376.695,422.426 373.029,421.092 369.5,419.5C 367.701,419.577 366.034,420.077 364.5,421C 358.041,425.79 351.874,430.957 346,436.5C 345.446,440.283 343.446,442.95 340,444.5C 338.848,447.44 337.848,450.44 337,453.5C 323.227,461.273 312.894,472.273 306,486.5C 302.121,495.164 301.621,503.997 304.5,513C 299.699,523.655 298.199,534.821 300,546.5C 305.373,557.934 310.373,569.601 315,581.5C 316.333,583.5 317.667,585.5 319,587.5C 324.209,592.009 329.043,596.842 333.5,602C 344.387,603.538 355.221,605.372 366,607.5C 377.849,604.881 389.683,605.047 401.5,608C 402.931,608.465 404.097,609.299 405,610.5C 405.233,612.78 406.066,614.78 407.5,616.5C 412.113,617.279 416.78,617.779 421.5,618C 427.441,619.273 430.441,622.94 430.5,629C 427.114,638.646 427.948,647.813 433,656.5C 439.382,663.88 445.382,671.547 451,679.5C 454.154,688.64 457.987,697.474 462.5,706C 454.009,714.449 452.509,723.949 458,734.5C 464.306,740.806 470.64,747.14 477,753.5C 480.441,761.941 486.274,768.107 494.5,772C 495.296,777.463 498.296,781.13 503.5,783C 527.005,788.168 549.339,785.168 570.5,774C 572.461,770.579 574.294,767.079 576,763.5C 582.622,761.214 586.788,756.714 588.5,750C 587.96,746.503 586.96,743.17 585.5,740C 592.14,734.011 599.473,729.011 607.5,725C 611.422,721.749 614.588,717.916 617,713.5C 617.667,709.833 617.667,706.167 617,702.5C 613.405,693.466 611.739,684.133 612,674.5C 613.667,671.167 615.333,667.833 617,664.5C 626.709,651.58 637.875,640.08 650.5,630C 660.305,621.875 667.805,612.042 673,600.5C 677.13,589.942 680.964,579.275 684.5,568.5C 684.255,566.337 683.255,564.67 681.5,563.5C 670.728,568.553 659.728,573.053 648.5,577C 643.253,577.125 639.087,574.959 636,570.5C 634.333,567.167 632.667,563.833 631,560.5C 626.609,556.388 621.776,552.888 616.5,550C 610.456,541.412 604.289,532.912 598,524.5C 596.109,520.389 595.109,516.056 595,511.5C 588.286,503.788 581.953,495.788 576,487.5C 573.61,482.997 571.61,478.331 570,473.5C 567.951,472.286 566.451,470.62 565.5,468.5C 567.167,467.833 568.833,467.167 570.5,466.5C 571.873,466.343 573.207,466.51 574.5,467C 576.911,468.955 579.411,470.789 582,472.5C 582.667,474.5 583.333,476.5 584,478.5C 594.339,487.81 602.672,498.477 609,510.5C 613.34,515.173 618.006,519.506 623,523.5C 628.374,533.58 632.04,544.247 634,555.5C 635.5,557.667 637,559.833 638.5,562C 640.5,562.667 642.5,562.667 644.5,562C 652.788,558.907 660.788,555.24 668.5,551C 679.344,543.411 690.011,535.578 700.5,527.5C 709.129,517.688 715.462,506.521 719.5,494C 718.735,490.225 716.735,487.225 713.5,485C 707.467,482.293 701.967,478.793 697,474.5C 693.176,477.974 689.01,481.141 684.5,484C 679.864,484.073 676.031,482.239 673,478.5C 671.167,476 669.333,473.5 667.5,471C 658.269,467.41 653.269,460.576 652.5,450.5C 658.923,450.714 663.923,453.547 667.5,459C 673.305,463.269 679.805,465.769 687,466.5C 691.064,465.05 695.231,464.05 699.5,463.5C 699.263,464.791 699.596,465.791 700.5,466.5C 701.681,468.067 703.347,468.901 705.5,469C 718.941,469.822 732.275,468.989 745.5,466.5C 751.437,470.747 757.437,475.081 763.5,479.5C 765.001,478.248 766.668,477.248 768.5,476.5C 774.139,498.12 782.306,518.786 793,538.5C 797.511,542.99 799.677,541.99 799.5,535.5C 800.773,527.497 800.773,519.497 799.5,511.5C 799.22,504.816 799.053,498.15 799,491.5C 800.591,488.648 801.924,485.648 803,482.5C 803.737,475.039 805.071,467.705 807,460.5C 808.574,459.016 809.907,457.349 811,455.5C 812.943,462.525 814.443,469.525 815.5,476.5C 816.271,492.154 816.604,507.821 816.5,523.5C 813.373,551.786 807.04,579.452 797.5,606.5C 786.588,633.668 772.588,659.002 755.5,682.5C 753.844,684.46 752.177,686.46 750.5,688.5C 715.602,731.283 672.269,762.283 620.5,781.5C 599.173,788.429 577.506,793.429 555.5,796.5C 532.805,797.994 510.138,797.661 487.5,795.5C 442.316,787.997 400.649,771.664 362.5,746.5C 333.208,726.208 308.208,701.542 287.5,672.5C 280.319,662.134 273.652,651.467 267.5,640.5C 256.952,620.065 248.619,598.732 242.5,576.5C 238.511,558.561 235.844,540.561 234.5,522.5C 234.334,504.154 234.667,485.82 235.5,467.5C 245.747,393.169 278.081,330.336 332.5,279C 338.46,273.705 344.96,269.205 352,265.5C 352.5,265.667 353,265.833 353.5,266C 352.335,268.715 353.002,271.048 355.5,273C 357.365,274.301 359.365,274.635 361.5,274C 373.217,264.615 385.217,255.615 397.5,247C 404.305,243.164 411.638,241.497 419.5,242C 428.55,238.974 437.217,235.14 445.5,230.5C 445.833,230.667 446.167,230.833 446.5,231C 442.007,234.565 438.007,238.565 434.5,243C 436.325,248.984 439.992,250.317 445.5,247C 450.731,244.768 454.231,240.935 456,235.5C 462.896,228.8 471.062,224.3 480.5,222C 489.348,220.288 498.014,217.955 506.5,215C 514.833,214.333 523.167,214.333 531.5,215C 543.691,216.518 555.858,217.684 568,218.5C 568.333,218.167 568.667,217.833 569,217.5C 569.529,219.585 569.029,221.418 567.5,223C 567.833,223.5 568.167,224 568.5,224.5C 574.246,226.54 579.579,229.373 584.5,233C 582.854,234.656 580.854,235.489 578.5,235.5C 573.634,234.401 568.967,232.734 564.5,230.5C 563.151,230.846 561.817,231.179 560.5,231.5 Z M 410.5,318.5 C 410.5,318.833 410.5,319.167 410.5,319.5C 409.833,319.5 409.167,319.5 408.5,319.5C 408.5,319.167 408.5,318.833 408.5,318.5C 409.222,318.082 409.722,317.416 410,316.5C 410.464,317.094 410.631,317.761 410.5,318.5 Z"/></g>
<g><path style="opacity:1" fill="#495da0" d="M 552.5,179.5 C 558.912,179.593 565.245,180.26 571.5,181.5C 570.378,182.156 569.045,182.489 567.5,182.5C 559.534,181.338 551.534,180.504 543.5,180C 546.482,179.502 549.482,179.335 552.5,179.5 Z"/></g>
<g><path style="opacity:1" fill="#304353" d="M 258.5,279.5 C 256.259,280.3 255.259,281.966 255.5,284.5C 253.498,287.334 250.998,289.667 248,291.5C 243.563,280.623 238.563,269.956 233,259.5C 230.965,255.657 228.465,252.324 225.5,249.5C 225.918,248.778 226.584,248.278 227.5,248C 226.5,247.667 225.5,247.333 224.5,247C 225.704,243.809 224.537,241.643 221,240.5C 218.403,236.297 215.57,232.297 212.5,228.5C 211.743,227.227 211.077,227.227 210.5,228.5C 197.337,216.171 184.003,204.004 170.5,192C 173.833,188.667 177.167,185.333 180.5,182C 199.619,188.263 218.786,194.763 238,201.5C 238.945,201.905 239.612,202.572 240,203.5C 251.559,193.64 263.393,184.14 275.5,175C 286.252,167.64 297.586,166.307 309.5,171C 309.163,176.2 307.663,181.034 305,185.5C 301.833,188.667 298.667,191.833 295.5,195C 281.543,205.233 268.043,216.066 255,227.5C 256.494,244.758 257.66,262.091 258.5,279.5 Z"/></g>
<g><path style="opacity:1" fill="#405da2" d="M 421.5,194.5 C 422.239,194.369 422.906,194.536 423.5,195C 391.229,206.135 361.229,221.468 333.5,241C 331.291,242.873 329.458,245.04 328,247.5C 326.701,247.034 325.201,247.034 323.5,247.5C 352.869,224.142 385.536,206.475 421.5,194.5 Z"/></g>
<g><path style="opacity:1" fill="#80b3db" d="M 560.5,231.5 C 559.213,233.637 558.379,235.97 558,238.5C 557.329,239.252 556.496,239.586 555.5,239.5C 557.013,237.484 557.847,235.151 558,232.5C 558.671,231.748 559.504,231.414 560.5,231.5 Z"/></g>
<g><path style="opacity:1" fill="#293b4a" d="M 225.5,249.5 C 214.495,258.334 203.328,267.001 192,275.5C 190.144,279.998 188.977,284.665 188.5,289.5C 187.71,290.609 187.21,291.942 187,293.5C 186.808,291.423 186.308,289.423 185.5,287.5C 184.914,287.709 184.414,288.043 184,288.5C 182.954,284.453 183.787,283.786 186.5,286.5C 187.854,283.933 187.52,281.599 185.5,279.5C 183.899,280.165 182.399,280.499 181,280.5C 178.414,278.455 175.58,276.789 172.5,275.5C 171.186,276.313 170.019,277.313 169,278.5C 168.601,278.272 168.435,277.938 168.5,277.5C 168.953,276.542 169.619,275.708 170.5,275C 165.569,269.562 160.236,264.728 154.5,260.5C 155.167,259.5 155.833,258.5 156.5,257.5C 157.641,256.661 158.974,255.994 160.5,255.5C 167.796,257.216 175.129,258.383 182.5,259C 192.061,248.943 201.395,238.776 210.5,228.5C 211.077,227.227 211.743,227.227 212.5,228.5C 215.57,232.297 218.403,236.297 221,240.5C 224.537,241.643 225.704,243.809 224.5,247C 225.5,247.333 226.5,247.667 227.5,248C 226.584,248.278 225.918,248.778 225.5,249.5 Z"/></g>
<g><path style="opacity:1" fill="#a9b1b9" d="M 156.5,257.5 C 155.833,258.5 155.167,259.5 154.5,260.5C 153.282,258.668 153.949,257.668 156.5,257.5 Z"/></g>
<g><path style="opacity:1" fill="#3a66af" d="M 710.5,237.5 C 740.418,258.084 766.084,283.084 787.5,312.5C 787.631,313.239 787.464,313.906 787,314.5C 766.125,285.292 740.958,260.458 711.5,240C 710.001,239.162 709.668,238.329 710.5,237.5 Z"/></g>
<g><path style="opacity:1" fill="#304353" d="M 188.5,289.5 C 186.821,299.277 184.321,299.61 181,290.5C 147.332,336.496 129.332,388.163 127,445.5C 125.652,565.276 169.818,664.442 259.5,743C 321.969,793.783 393.636,821.95 474.5,827.5C 476.948,828.473 479.615,828.806 482.5,828.5C 483.5,828.5 484.5,828.5 485.5,828.5C 514.216,831.521 542.883,831.021 571.5,827C 588.938,823.521 605.938,819.688 622.5,815.5C 586.183,833.163 547.85,843.497 507.5,846.5C 488.172,846.304 468.838,846.304 449.5,846.5C 325.548,833.639 229.715,775.306 162,671.5C 106.414,580.985 90.7477,483.985 115,380.5C 126.065,342.361 143.898,308.028 168.5,277.5C 168.435,277.938 168.601,278.272 169,278.5C 170.019,277.313 171.186,276.313 172.5,275.5C 175.58,276.789 178.414,278.455 181,280.5C 182.399,280.499 183.899,280.165 185.5,279.5C 187.52,281.599 187.854,283.933 186.5,286.5C 183.787,283.786 182.954,284.453 184,288.5C 184.414,288.043 184.914,287.709 185.5,287.5C 186.308,289.423 186.808,291.423 187,293.5C 187.21,291.942 187.71,290.609 188.5,289.5 Z"/></g>
<g><path style="opacity:1" fill="#babfc4" d="M 258.5,279.5 C 257.737,281.368 256.737,283.035 255.5,284.5C 255.259,281.966 256.259,280.3 258.5,279.5 Z"/></g>
<g><path style="opacity:1" fill="#a7cae4" d="M 452.5,279.5 C 454.175,282.507 454.841,285.84 454.5,289.5C 453.419,286.373 452.753,283.04 452.5,279.5 Z"/></g>
<g><path style="opacity:1" fill="#2473b9" d="M 423.5,302.5 C 422.167,305.5 422.167,308.5 423.5,311.5C 423.631,312.239 423.464,312.906 423,313.5C 419.977,315.698 417.144,318.031 414.5,320.5C 414.167,320.5 413.833,320.5 413.5,320.5C 410.435,326.028 409.435,325.694 410.5,319.5C 410.5,319.167 410.5,318.833 410.5,318.5C 411.285,315.82 412.285,313.154 413.5,310.5C 413.498,305.481 413.165,300.481 412.5,295.5C 412.596,291.856 413.262,288.356 414.5,285C 416.686,283.691 418.853,283.524 421,284.5C 424.496,290.136 425.329,296.136 423.5,302.5 Z"/></g>
<g><path style="opacity:1" fill="#d6e9f6" d="M 494.5,283.5 C 494.805,286.414 494.805,289.081 494.5,291.5C 493.233,288.728 493.233,286.061 494.5,283.5 Z"/></g>
<g><path style="opacity:1" fill="#7bb0d8" d="M 423.5,302.5 C 423.661,305.81 423.661,308.81 423.5,311.5C 422.167,308.5 422.167,305.5 423.5,302.5 Z"/></g>
<g><path style="opacity:1" fill="#3077bc" d="M 402.5,314.5 C 404.265,315.461 406.265,315.795 408.5,315.5C 408.5,316.5 408.5,317.5 408.5,318.5C 408.5,318.833 408.5,319.167 408.5,319.5C 407.833,320.167 407.167,320.833 406.5,321.5C 403.764,323.554 401.431,326.054 399.5,329C 384.76,332.332 381.093,327.499 388.5,314.5C 393.151,313.297 397.818,313.297 402.5,314.5 Z"/></g>
<g><path style="opacity:1" fill="#a2c6e4" d="M 413.5,310.5 C 412.285,313.154 411.285,315.82 410.5,318.5C 410.631,317.761 410.464,317.094 410,316.5C 409.722,317.416 409.222,318.082 408.5,318.5C 408.5,317.5 408.5,316.5 408.5,315.5C 406.265,315.795 404.265,315.461 402.5,314.5C 404.199,314.66 405.866,314.494 407.5,314C 409.132,312.18 411.132,311.014 413.5,310.5 Z"/></g>
<g><path style="opacity:1" fill="#2472b9" d="M 405.5,339.5 C 404.508,339.672 403.842,339.338 403.5,338.5C 403.294,335.505 403.96,332.838 405.5,330.5C 408.005,328.285 411.005,327.119 414.5,327C 413.044,326.577 412.544,325.744 413,324.5C 414.622,323.901 416.122,323.234 417.5,322.5C 420.833,322.167 424.167,321.833 427.5,321.5C 427.893,324.93 427.227,328.096 425.5,331C 418.928,334.121 412.261,336.955 405.5,339.5 Z"/></g>
<g><path style="opacity:1" fill="#619ccf" d="M 408.5,319.5 C 409.167,319.5 409.833,319.5 410.5,319.5C 409.435,325.694 410.435,326.028 413.5,320.5C 413.833,321.833 414.167,321.833 414.5,320.5C 415.222,321.551 416.222,322.218 417.5,322.5C 416.122,323.234 414.622,323.901 413,324.5C 412.544,325.744 413.044,326.577 414.5,327C 411.005,327.119 408.005,328.285 405.5,330.5C 406.908,329.089 407.908,327.423 408.5,325.5C 407.802,324.137 407.802,322.971 408.5,322C 407.906,321.536 407.239,321.369 406.5,321.5C 407.167,320.833 407.833,320.167 408.5,319.5 Z"/></g>
<g><path style="opacity:1" fill="#d6ebfa" d="M 403.5,338.5 C 403.842,339.338 404.508,339.672 405.5,339.5C 404.614,340.776 403.614,340.776 402.5,339.5C 402.624,338.893 402.957,338.56 403.5,338.5 Z"/></g>
<g><path style="opacity:1" fill="#405da2" d="M 248.5,333.5 C 249.043,333.56 249.376,333.893 249.5,334.5C 235.513,356.479 225.346,380.146 219,405.5C 218.51,404.207 218.343,402.873 218.5,401.5C 224.695,377.113 234.695,354.447 248.5,333.5 Z"/></g>
<g><path style="opacity:1" fill="#8dbade" d="M 598.5,377.5 C 600.28,378.99 600.946,380.99 600.5,383.5C 599.262,381.786 598.595,379.786 598.5,377.5 Z"/></g>
<g><path style="opacity:1" fill="#85b5dd" d="M 538.5,392.5 C 536.167,392.5 533.833,392.5 531.5,392.5C 533.764,390.109 536.098,390.109 538.5,392.5 Z"/></g>
<g><path style="opacity:1" fill="#3979be" d="M 439.5,393.5 C 441.5,393.5 443.5,393.5 445.5,393.5C 446.462,401.035 443.295,404.369 436,403.5C 435.333,401.5 435.333,399.5 436,397.5C 437.376,396.295 438.542,394.962 439.5,393.5 Z"/></g>
<g><path style="opacity:1" fill="#b4cfe7" d="M 444.5,419.5 C 445.496,419.414 446.329,419.748 447,420.5C 447.877,422.674 447.377,424.341 445.5,425.5C 445.675,423.379 445.341,421.379 444.5,419.5 Z"/></g>
<g><path style="opacity:1" fill="#cee6f4" d="M 570.5,466.5 C 568.833,467.167 567.167,467.833 565.5,468.5C 564.957,468.44 564.624,468.107 564.5,467.5C 566.396,466.534 568.396,466.201 570.5,466.5 Z"/></g>
<g><path style="opacity:1" fill="#3a6eb8" d="M 745.5,466.5 C 732.275,468.989 718.941,469.822 705.5,469C 703.347,468.901 701.681,468.067 700.5,466.5C 700.369,465.761 700.536,465.094 701,464.5C 701.519,465.516 702.353,466.182 703.5,466.5C 706.681,467.113 709.848,467.78 713,468.5C 724.456,466.93 735.956,466.097 747.5,466C 746.906,466.464 746.239,466.631 745.5,466.5 Z"/></g>
<g><path style="opacity:1" fill="#2c66b1" d="M 235.5,467.5 C 234.667,485.82 234.334,504.154 234.5,522.5C 234.665,525.518 234.498,528.518 234,531.5C 231.785,508.452 232.118,485.452 235,462.5C 235.494,464.134 235.66,465.801 235.5,467.5 Z"/></g>
<g><path style="opacity:1" fill="#2e63ad" d="M 816.5,523.5 C 816.604,507.821 816.271,492.154 815.5,476.5C 815.351,475.448 815.517,474.448 816,473.5C 818.769,491.793 819.102,510.126 817,528.5C 816.506,526.866 816.34,525.199 816.5,523.5 Z"/></g>
<g><path style="opacity:1" fill="#3f64aa" d="M 207.5,454.5 C 208.152,455.449 208.486,456.615 208.5,458C 207.254,465.454 206.421,472.954 206,480.5C 205.831,496.005 205.331,511.339 204.5,526.5C 202.57,502.336 203.57,478.336 207.5,454.5 Z"/></g>
<g><path style="opacity:1" fill="#4969b6" d="M 847.5,488.5 C 848.13,503.508 847.796,518.508 846.5,533.5C 845.837,531.359 845.503,529.025 845.5,526.5C 846.018,513.667 846.685,501.001 847.5,488.5 Z"/></g>
<g><path style="opacity:1" fill="#5770bb" d="M 799.5,511.5 C 800.773,519.497 800.773,527.497 799.5,535.5C 798.167,527.5 798.167,519.5 799.5,511.5 Z"/></g>
<g><path style="opacity:1" fill="#3b63ac" d="M 242.5,576.5 C 248.619,598.732 256.952,620.065 267.5,640.5C 267.631,641.239 267.464,641.906 267,642.5C 255.993,622.154 247.493,600.821 241.5,578.5C 241.543,577.584 241.876,576.917 242.5,576.5 Z"/></g>
<g><path style="opacity:1" fill="#355da7" d="M 797.5,606.5 C 798.043,606.56 798.376,606.893 798.5,607.5C 788.22,635.065 774.053,660.398 756,683.5C 755.601,683.272 755.435,682.938 755.5,682.5C 772.588,659.002 786.588,633.668 797.5,606.5 Z"/></g>
<g><path style="opacity:1" fill="#2173b9" d="M 658.5,702.5 C 662.06,701.891 664.06,703.391 664.5,707C 661.034,725.604 652.367,741.27 638.5,754C 637.127,754.875 635.627,755.375 634,755.5C 630.542,754.714 627.042,754.38 623.5,754.5C 622.665,750.451 623.165,746.451 625,742.5C 628.14,735.414 631.474,728.414 635,721.5C 639.755,718.872 644.588,716.372 649.5,714C 652.629,710.227 655.629,706.394 658.5,702.5 Z"/></g>
<g><path style="opacity:1" fill="#4562a5" d="M 287.5,672.5 C 308.208,701.542 333.208,726.208 362.5,746.5C 332.043,727.713 306.709,703.38 286.5,673.5C 286.624,672.893 286.957,672.56 287.5,672.5 Z"/></g>
<g><path style="opacity:1" fill="#3f5ca1" d="M 750.5,688.5 C 751.239,688.369 751.906,688.536 752.5,689C 717.658,732.313 673.992,763.48 621.5,782.5C 620.893,782.376 620.56,782.043 620.5,781.5C 672.269,762.283 715.602,731.283 750.5,688.5 Z"/></g>
<g><path style="opacity:1" fill="#3a6ab3" d="M 338.5,766.5 C 315.151,748.817 294.484,728.483 276.5,705.5C 276.435,705.062 276.601,704.728 277,704.5C 295.242,727.41 316.075,747.576 339.5,765C 340.712,766.107 340.379,766.607 338.5,766.5 Z"/></g>
<g><path style="opacity:1" fill="#3765ac" d="M 487.5,795.5 C 510.138,797.661 532.805,797.994 555.5,796.5C 560.468,796.866 560.134,797.366 554.5,798C 530.742,800.29 507.076,799.623 483.5,796C 484.793,795.51 486.127,795.343 487.5,795.5 Z"/></g>
<g><path style="opacity:1" fill="#e0dfdc" d="M 479.5,826.5 C 480.391,827.11 481.391,827.443 482.5,827.5C 482.5,827.833 482.5,828.167 482.5,828.5C 479.615,828.806 476.948,828.473 474.5,827.5C 476.415,827.784 478.081,827.451 479.5,826.5 Z"/></g>
<g><path style="opacity:1" fill="#2a3a4c" d="M 449.5,846.5 C 468.838,846.304 488.172,846.304 507.5,846.5C 488.137,847.822 468.804,847.822 449.5,846.5 Z"/></g>
</svg>
